<svg width="49" height="33" viewBox="0 0 49 33" fill="none" xmlns="http://www.w3.org/2000/svg">
<path d="M0 23.8553C0 19.2263 3.75257 15.4737 8.38159 15.4737H9.02633V32.2369H8.38159C3.75257 32.2369 0 28.4843 0 23.8553V23.8553Z" fill="white"/>
<path d="M32.2369 8.38159V8.38159C37.222 8.38159 41.2633 12.4228 41.2633 17.4079V32.2369H32.2369V8.38159Z" fill="white"/>
<path d="M42.5526 19.0198V19.0198C46.1134 19.0198 49 21.9064 49 25.4671V25.7895C49 29.3503 46.1134 32.2369 42.5526 32.2369V32.2369V19.0198Z" fill="white"/>
<path d="M10.3158 9.67106C10.3158 4.32988 14.6457 0 19.9869 0V0V32.2369H10.3158V9.67106Z" fill="white"/>
<path d="M21.2763 0V0C26.6175 0 30.9474 4.32988 30.9474 9.67106V32.2369H21.2763V0Z" fill="white"/>
<mask id="mask0" mask-type="alpha" maskUnits="userSpaceOnUse" x="21" y="0" width="10" height="33">
<path d="M21.2763 0V0C26.6175 0 30.9474 4.32988 30.9474 9.67106V32.2369H21.2763V0Z" fill="#FFC266"/>
</mask>
<g mask="url(#mask0)">
<path d="M19.0197 10.3158V10.3158C24.3609 10.3158 28.6908 14.6457 28.6908 19.9869V42.5527H19.0197V10.3158Z" fill="white"/>
</g>
<mask id="mask1" mask-type="alpha" maskUnits="userSpaceOnUse" x="0" y="15" width="10" height="18">
<path d="M0 23.8553C0 19.2263 3.75257 15.4737 8.38159 15.4737H9.02633V32.2369H8.38159C3.75257 32.2369 0 28.4843 0 23.8553V23.8553Z" fill="#FFC266"/>
</mask>
<g mask="url(#mask1)">
<rect y="15.4737" width="6.76974" height="16.7632" fill="white"/>
</g>
<mask id="mask2" mask-type="alpha" maskUnits="userSpaceOnUse" x="10" y="0" width="10" height="33">
<path d="M10.3158 9.67106C10.3158 4.32988 14.6457 0 19.9869 0V0V32.2369H10.3158V9.67106Z" fill="#FFC266"/>
</mask>
<g mask="url(#mask2)">
<path d="M17.7303 13.8618C17.7303 8.52067 13.4005 4.1908 8.05928 4.1908V4.1908V34.8158H17.7303V13.8618Z" fill="white"/>
</g>
<mask id="mask3" mask-type="alpha" maskUnits="userSpaceOnUse" x="32" y="8" width="10" height="25">
<path d="M32.2369 8.38159V8.38159C37.222 8.38159 41.2633 12.4228 41.2633 17.4079V32.2369H32.2369V8.38159Z" fill="#FFC266"/>
</mask>
<g mask="url(#mask3)">
<path d="M31.9144 20.3092V20.3092C35.4752 20.3092 38.3618 23.1958 38.3618 26.7566V27.079C38.3618 30.6397 35.4752 33.5263 31.9144 33.5263V33.5263V20.3092Z" fill="white"/>
</g>
</svg>
